<?xml version="1.0" standalone="no"?>
<!DOCTYPE svg PUBLIC "-//W3C//DTD SVG 20010904//EN"
 "http://www.w3.org/TR/2001/REC-SVG-20010904/DTD/svg10.dtd">
<svg version="1.0" xmlns="http://www.w3.org/2000/svg"
 width="384.000000pt" height="384.000000pt" viewBox="0 0 384.000000 384.000000"
 preserveAspectRatio="xMidYMid meet">

<g transform="translate(0.000000,384.000000) scale(0.100000,-0.100000)"
fill="#000000" stroke="none">
<path d="M323 3825 c-29 -8 -72 -24 -95 -36 -58 -29 -140 -109 -171 -167 -60
-110 -57 -24 -57 -1702 0 -1678 -3 -1592 57 -1702 31 -57 113 -138 171 -167
104 -53 36 -51 1692 -51 1656 0 1588 -2 1692 51 58 29 140 110 171 167 60 110
57 24 57 1702 0 1678 3 1592 -57 1702 -31 57 -113 138 -171 167 -104 53 -35
51 -1697 50 -1294 0 -1548 -3 -1592 -14z m2667 -1050 l0 -215 -1070 0 -1070 0
0 215 0 215 1070 0 1070 0 0 -215z m0 -855 l0 -210 -1070 0 -1070 0 0 210 0
210 1070 0 1070 0 0 -210z m-640 -855 l0 -215 -750 0 -750 0 0 215 0 215 750
0 750 0 0 -215z"/>
</g>
</svg>
