<?xml version="1.0" standalone="no"?>
<!DOCTYPE svg PUBLIC "-//W3C//DTD SVG 20010904//EN"
 "http://www.w3.org/TR/2001/REC-SVG-20010904/DTD/svg10.dtd">
<svg version="1.0" xmlns="http://www.w3.org/2000/svg"
 width="106.000000pt" height="106.000000pt" viewBox="0 0 106.000000 106.000000"
 preserveAspectRatio="xMidYMid meet">

<g transform="translate(0.000000,106.000000) scale(0.100000,-0.100000)"
fill="#000000" stroke="none">
<path d="M391 1044 c-225 -60 -391 -279 -391 -514 0 -238 167 -455 395 -515
75 -19 194 -19 268 0 185 48 345 208 386 385 13 58 13 202 0 260 -41 177 -201
337 -386 385 -71 19 -201 18 -272 -1z m309 -141 c95 -44 153 -100 197 -191 37
-73 38 -80 38 -182 0 -102 -1 -109 -38 -182 -44 -91 -102 -146 -197 -192 -60
-28 -73 -31 -165 -31 -80 1 -111 5 -158 24 -75 30 -173 120 -211 194 -56 112
-58 254 -5 364 26 55 106 143 156 175 109 67 268 76 383 21z"/>
</g>
</svg>
