<?xml version="1.0" encoding="utf-8"?>
<!-- Generator: Adobe Illustrator 19.0.0, SVG Export Plug-In . SVG Version: 6.00 Build 0)  -->
<svg version="1.1" id="Layer_1" xmlns="http://www.w3.org/2000/svg" xmlns:xlink="http://www.w3.org/1999/xlink" x="0px" y="0px"
	 viewBox="0 0 512 512" style="enable-background:new 0 0 512 512;" xml:space="preserve">
<g id="XMLID_1_">
	<path id="XMLID_5_" d="M462.8,0H48.3C22.3,0,0,21.4,0,48.3v415.4c0,26,21.4,48.3,48.3,48.3h415.4c26,0,48.3-21.4,48.3-48.3V48.3
		C511.1,21.4,489.7,0,462.8,0z M259.3,447c-105.9,0-191.4-85.5-191.4-191.4S153.3,64.1,259.3,64.1c52,0,94.8,18.6,128.2,50.2
		l-52,50.2c-13.9-13.9-39-29.7-76.2-29.7c-65,0-118.9,53.9-118.9,120.8s53,120.8,118.9,120.8c76.2,0,104.1-54.8,108.7-82.7H259.3
		v-66h181.2c1.9,9.3,2.8,19.5,2.8,31.6C443.2,369.8,369.8,447,259.3,447L259.3,447z"/>
</g>
</svg>
