<?xml version="1.0" standalone="no"?>
<!DOCTYPE svg PUBLIC "-//W3C//DTD SVG 20010904//EN"
 "http://www.w3.org/TR/2001/REC-SVG-20010904/DTD/svg10.dtd">
<svg version="1.0" xmlns="http://www.w3.org/2000/svg"
 width="512.000000pt" height="512.000000pt" viewBox="0 0 512.000000 512.000000"
 preserveAspectRatio="xMidYMid meet">

<g transform="translate(0.000000,512.000000) scale(0.100000,-0.100000)"
fill="#000000" stroke="none">
<path d="M1145 5109 c-489 -64 -918 -418 -1075 -887 -69 -208 -65 -105 -65
-1662 0 -1559 -4 -1453 66 -1665 127 -380 445 -697 827 -825 208 -69 105 -65
1662 -65 1559 0 1453 -4 1665 66 380 127 697 445 825 827 69 208 65 105 65
1662 0 1557 4 1454 -65 1662 -128 382 -445 700 -825 827 -211 70 -91 65 -1625
67 -783 1 -1415 -2 -1455 -7z m1540 -1215 c28 -7 69 -26 91 -41 84 -57 1240
-1032 1257 -1061 45 -77 29 -182 -37 -248 -47 -48 -93 -64 -183 -64 l-63 0 0
-549 c0 -383 -3 -558 -11 -582 -18 -51 -55 -97 -102 -122 -41 -21 -53 -22
-359 -25 l-318 -3 0 343 c0 189 -4 371 -9 405 -20 134 -101 248 -220 306 -62
30 -73 32 -171 32 -95 0 -111 -3 -162 -28 -126 -62 -209 -174 -228 -308 -5
-35 -10 -218 -10 -407 l0 -343 -317 3 c-307 3 -319 4 -360 25 -47 25 -84 71
-102 122 -8 24 -11 199 -11 582 l0 549 -62 0 c-85 0 -127 13 -175 55 -80 68
-95 186 -36 268 43 58 1226 1042 1289 1072 94 44 188 51 299 19z"/>
</g>
</svg>
