<?xml version="1.0" standalone="no"?>
<!DOCTYPE svg PUBLIC "-//W3C//DTD SVG 20010904//EN"
 "http://www.w3.org/TR/2001/REC-SVG-20010904/DTD/svg10.dtd">
<svg version="1.0" xmlns="http://www.w3.org/2000/svg"
 width="426.000000pt" height="426.000000pt" viewBox="0 0 426.000000 426.000000"
 preserveAspectRatio="xMidYMid meet">

<g transform="translate(0.000000,426.000000) scale(0.100000,-0.100000)"
fill="#000000" stroke="none">
<path d="M485 4244 c-33 -8 -94 -31 -135 -51 -105 -52 -231 -178 -282 -283
-71 -144 -68 -73 -68 -1403 0 -1137 1 -1198 18 -1193 9 2 337 91 727 196 618
167 717 191 767 188 55 -4 67 -11 339 -192 154 -103 287 -185 293 -183 7 3
224 132 482 288 258 155 489 288 514 296 50 16 106 11 153 -14 18 -9 240 -153
495 -319 254 -167 464 -304 467 -304 3 0 5 548 5 1218 0 1351 3 1278 -68 1422
-51 105 -177 231 -282 282 -146 72 -31 68 -1785 67 -1343 -1 -1589 -3 -1640
-15z m916 -854 c120 -37 211 -117 266 -236 25 -53 28 -70 28 -169 0 -103 -2
-114 -32 -177 -44 -93 -109 -160 -200 -205 -65 -32 -86 -37 -162 -41 -110 -5
-176 12 -262 71 -223 149 -253 456 -64 648 112 115 275 156 426 109z"/>
<path d="M2730 1173 c-250 -151 -477 -286 -505 -299 -57 -27 -119 -31 -169
-10 -18 7 -161 99 -318 204 l-285 190 -726 -196 -727 -197 0 -155 c0 -180 13
-249 68 -360 51 -105 177 -231 282 -282 146 -72 32 -68 1780 -68 1748 0 1634
-4 1780 68 105 51 231 177 282 282 51 103 69 190 66 307 l-3 95 -530 349
c-291 192 -532 348 -535 348 -3 0 -210 -124 -460 -276z"/>
</g>
</svg>
