<?xml version="1.0" standalone="no"?>
<!DOCTYPE svg PUBLIC "-//W3C//DTD SVG 20010904//EN"
 "http://www.w3.org/TR/2001/REC-SVG-20010904/DTD/svg10.dtd">
<svg version="1.0" xmlns="http://www.w3.org/2000/svg"
 width="512.000000pt" height="512.000000pt" viewBox="0 0 512.000000 512.000000"
 preserveAspectRatio="xMidYMid meet">

<g transform="translate(0.000000,512.000000) scale(0.100000,-0.100000)"
fill="#000000" stroke="none">
<path d="M645 4756 c-116 -37 -207 -116 -258 -224 l-32 -67 0 -1905 0 -1905
32 -67 c41 -88 113 -160 201 -201 l67 -32 1906 0 1905 0 76 38 c91 44 146 102
192 197 l31 65 0 1905 0 1905 -31 65 c-46 95 -101 153 -192 197 l-76 38 -1890
2 c-1508 1 -1899 -1 -1931 -11z m2049 -1287 c116 -31 240 -126 305 -233 115
-192 88 -440 -66 -606 l-54 -59 95 -461 c53 -253 96 -463 96 -465 0 -3 -229
-5 -510 -5 -280 0 -510 2 -510 4 0 3 43 213 96 467 l95 461 -50 51 c-185 186
-189 503 -7 695 84 89 178 142 288 161 58 11 162 6 222 -10z"/>
</g>
</svg>
