<?xml version="1.0" standalone="no"?>
<!DOCTYPE svg PUBLIC "-//W3C//DTD SVG 20010904//EN"
 "http://www.w3.org/TR/2001/REC-SVG-20010904/DTD/svg10.dtd">
<svg version="1.0" xmlns="http://www.w3.org/2000/svg"
 width="512.000000pt" height="512.000000pt" viewBox="0 0 512.000000 512.000000"
 preserveAspectRatio="xMidYMid meet">

<g transform="translate(0.000000,512.000000) scale(0.100000,-0.100000)"
fill="#000000" stroke="none">
<path d="M1355 5113 c-201 -24 -375 -76 -544 -163 -411 -213 -701 -605 -787
-1065 -18 -94 -19 -171 -19 -1325 0 -1154 1 -1231 19 -1325 115 -617 594
-1096 1211 -1211 94 -18 171 -19 1335 -19 l1235 0 105 23 c463 102 829 377
1039 782 68 130 109 247 143 400 l23 105 0 1235 c0 1164 -1 1241 -19 1335
-107 576 -532 1036 -1093 1185 -182 49 -210 50 -1453 48 -641 0 -1178 -3
-1195 -5z m1066 -889 c554 -95 995 -536 1084 -1084 19 -122 19 -332 0 -446
-29 -162 -103 -353 -192 -493 l-35 -54 484 -484 483 -483 -153 -152 -152 -153
-484 484 -484 484 -43 -31 c-72 -49 -220 -120 -320 -152 -256 -84 -552 -85
-810 -4 -392 123 -723 447 -854 838 -77 230 -89 493 -33 731 120 512 538 905
1063 999 111 20 330 20 446 0z"/>
<path d="M2030 3726 c-79 -18 -127 -35 -195 -69 -495 -247 -614 -899 -237
-1299 143 -152 305 -233 510 -258 392 -48 760 198 884 590 20 65 23 96 23 225
0 176 -12 234 -79 370 -140 284 -422 457 -741 454 -60 -1 -135 -7 -165 -13z"/>
</g>
</svg>
