<?xml version="1.0" standalone="no"?>
<!DOCTYPE svg PUBLIC "-//W3C//DTD SVG 20010904//EN"
 "http://www.w3.org/TR/2001/REC-SVG-20010904/DTD/svg10.dtd">
<svg version="1.0" xmlns="http://www.w3.org/2000/svg"
 width="512.000000pt" height="512.000000pt" viewBox="0 0 512.000000 512.000000"
 preserveAspectRatio="xMidYMid meet">

<g transform="translate(0.000000,512.000000) scale(0.100000,-0.100000)"
fill="#000000" stroke="none">
<path d="M825 4949 c-315 -59 -558 -284 -641 -594 -18 -67 -19 -140 -19 -1795
0 -1580 1 -1730 17 -1785 60 -216 171 -372 345 -485 76 -50 142 -79 248 -108
55 -16 205 -17 1785 -17 1580 0 1730 1 1785 17 106 29 172 58 248 108 174 113
285 269 345 485 16 55 17 205 17 1785 0 1580 -1 1730 -17 1785 -60 216 -171
372 -345 485 -73 48 -134 75 -243 108 -50 16 -198 17 -1765 18 -1020 1 -1730
-2 -1760 -7z m1975 -619 c167 -43 300 -119 427 -243 117 -114 191 -228 239
-371 44 -128 54 -213 54 -450 l0 -222 69 -10 c191 -30 347 -172 396 -359 23
-88 23 -1422 0 -1510 -45 -172 -179 -305 -352 -350 -86 -22 -2060 -22 -2146 0
-173 45 -307 179 -352 350 -22 87 -23 1422 0 1508 45 173 178 307 350 352 51
13 176 15 887 15 l828 0 0 193 c0 229 -12 297 -72 417 -32 64 -61 104 -118
161 -348 349 -937 189 -1069 -291 -12 -41 -29 -86 -39 -99 -41 -55 -140 -78
-201 -46 -41 21 -79 70 -87 112 -4 22 0 68 10 117 81 381 390 675 783 746 86
16 299 5 393 -20z"/>
<path d="M1535 2706 c-41 -18 -83 -69 -90 -109 -3 -18 -5 -334 -3 -704 3 -660
3 -672 24 -699 11 -15 33 -37 48 -48 27 -21 33 -21 1046 -21 1013 0 1019 0
1046 21 15 11 37 33 48 48 21 27 21 36 21 726 0 690 0 699 -21 726 -11 15 -33
37 -48 48 -27 21 -35 21 -1034 23 -822 2 -1013 0 -1037 -11z"/>
</g>
</svg>
